<svg id="SvgjsSvg1001" width="288" height="288" xmlns="http://www.w3.org/2000/svg" version="1.1" xmlns:xlink="http://www.w3.org/1999/xlink" xmlns:svgjs="http://svgjs.com/svgjs"><defs id="SvgjsDefs1002"></defs><g id="SvgjsG1008" transform="matrix(1,0,0,1,0,0)"><svg xmlns="http://www.w3.org/2000/svg" enable-background="new 0 0 123.734 123.734" viewBox="0 0 123.734 123.734" width="288" height="288"><path fill="#382039" d="M86.475 68.523c0-.39-.223-.727-.548-.892l-11.076-7.964-1.713 1.231 9.213 6.625H71.766l.657 2h13.032c.007 0 .014 0 .02 0C86.027 69.523 86.475 69.075 86.475 68.523zM74.538 43.683l-3.121 9.504h2.105l3.872-11.795c.135-.411-.01-.862-.359-1.118-.35-.257-.823-.259-1.175-.005l-10.552 7.587.654 1.993L74.538 43.683zM49.196 43.683l8.574 6.166.654-1.993-10.552-7.587c-.353-.254-.826-.252-1.175.005-.35.256-.494.707-.359 1.118l3.872 11.795h2.105L49.196 43.683zM61.867 82.277L58.34 71.537l-1.703 1.225 4.279 13.032c.135.411.518.689.95.689.432 0 .815-.277.95-.689l4.279-13.032-1.703-1.225L61.867 82.277zM41.382 67.523l9.213-6.625-1.713-1.231-11.188 8.045c-.352.253-.501.705-.368 1.118.133.413.518.693.952.693h13.032l.656-2H41.382z" class="colorffc847 svgShape"></path><path fill="#f638dc" d="M70.269,62.961l2.87-2.063l1.713-1.231l9.012-6.479h-10.34h-2.105H67.06l-1.096-3.338l-0.654-1.993
		l-3.442-10.484l-3.442,10.484l-0.654,1.993l-1.096,3.338h-4.358h-2.105h-10.34l9.012,6.479l1.713,1.231l2.87,2.063l-1.498,4.561
		l-0.656,2l-3.039,9.253l8.365-6.014l1.703-1.225l3.526-2.535l3.526,2.535l1.703,1.225l8.366,6.014l-3.038-9.253l-0.657-2
		L70.269,62.961z M68.962,70.007l-7.095-5.101l-7.095,5.101l2.71-8.254l-7.095-5.101h8.77l2.71-8.254l2.71,8.254h8.77l-7.095,5.101
		L68.962,70.007z" class="colorffdd8d svgShape"></path><polygon fill="#5a3d5c" points="66.251 61.753 73.347 56.653 64.577 56.653 61.867 48.399 59.157 56.653 50.387 56.653 57.482 61.753 54.772 70.007 61.867 64.906 68.962 70.007" class="colorf4c044 svgShape"></polygon><path fill="#382039" d="M61.867 9.378c.663 0 1.2-.537 1.2-1.2V1.2c0-.663-.538-1.2-1.2-1.2-.663 0-1.2.537-1.2 1.2v6.977C60.666 8.841 61.204 9.378 61.867 9.378zM61.867 27.944c.663 0 1.2-.537 1.2-1.2V13.617c0-.663-.538-1.2-1.2-1.2-.663 0-1.2.537-1.2 1.2v13.126C60.666 27.406 61.204 27.944 61.867 27.944zM61.867 114.355c-.663 0-1.2.537-1.2 1.2v6.979c0 .663.538 1.2 1.2 1.2.663 0 1.2-.537 1.2-1.2v-6.979C63.067 114.892 62.529 114.355 61.867 114.355zM61.867 95.79c-.663 0-1.2.537-1.2 1.2v13.125c0 .663.538 1.2 1.2 1.2.663 0 1.2-.537 1.2-1.2V96.99C63.067 96.327 62.529 95.79 61.867 95.79zM47.317 29.875c.192.462.639.741 1.109.741.153 0 .309-.029.459-.092.612-.253.903-.955.649-1.567l-5.023-12.126c-.254-.612-.955-.905-1.568-.649-.612.253-.903.955-.649 1.567L47.317 29.875zM76.417 93.858c-.254-.612-.956-.906-1.568-.649-.612.253-.903.955-.649 1.567l5.023 12.126c.192.462.639.741 1.109.741.153 0 .309-.029.459-.092.612-.253.903-.955.649-1.567L76.417 93.858zM23.055 24.751c.234.234.541.351.849.351.307 0 .614-.117.849-.351.469-.469.468-1.229 0-1.697l-4.934-4.934c-.469-.469-1.229-.469-1.697 0-.469.469-.469 1.228 0 1.697L23.055 24.751zM36.182 37.879c.234.234.542.352.849.352.307 0 .614-.117.849-.352.469-.469.469-1.229 0-1.697l-9.281-9.281c-.469-.469-1.229-.469-1.697 0-.469.469-.469 1.228 0 1.697L36.182 37.879zM100.679 98.982c-.469-.469-1.228-.469-1.697 0-.469.469-.469 1.229 0 1.697l4.934 4.935c.234.234.542.352.849.352.307 0 .614-.117.849-.352.468-.469.469-1.229 0-1.697L100.679 98.982zM87.552 85.855c-.469-.469-1.229-.469-1.697 0-.469.469-.468 1.229 0 1.697l9.281 9.28c.234.234.541.352.849.352.307 0 .614-.117.849-.352.469-.469.468-1.229 0-1.697L87.552 85.855zM16.832 44.511l12.126 5.022c.15.063.306.092.458.092.471 0 .918-.279 1.109-.741.253-.612-.038-1.315-.65-1.567l-12.127-5.022c-.612-.255-1.314.037-1.568.649C15.928 43.556 16.219 44.258 16.832 44.511zM106.903 79.223l-12.126-5.023c-.615-.257-1.314.037-1.568.649-.253.612.037 1.314.649 1.567l12.126 5.023c.15.063.306.092.459.092.471 0 .918-.279 1.109-.741C107.806 80.178 107.515 79.476 106.903 79.223zM8.178 60.666H1.2c-.663 0-1.2.537-1.2 1.2s.538 1.2 1.2 1.2h6.978c.663 0 1.2-.537 1.2-1.2S8.841 60.666 8.178 60.666zM27.943 61.866c0-.663-.538-1.2-1.2-1.2H13.618c-.663 0-1.2.537-1.2 1.2s.538 1.2 1.2 1.2h13.125C27.406 63.067 27.943 62.53 27.943 61.866zM122.534 60.666h-6.978c-.663 0-1.2.537-1.2 1.2s.538 1.2 1.2 1.2h6.978c.663 0 1.2-.537 1.2-1.2S123.196 60.666 122.534 60.666zM110.116 60.666H96.991c-.663 0-1.2.537-1.2 1.2s.538 1.2 1.2 1.2h13.125c.663 0 1.2-.537 1.2-1.2S110.779 60.666 110.116 60.666zM30.525 74.849c-.253-.612-.955-.906-1.568-.649l-12.126 5.023c-.612.253-.903.955-.649 1.567.192.462.639.741 1.109.741.153 0 .309-.029.459-.092l12.126-5.023C30.489 76.163 30.779 75.461 30.525 74.849zM93.208 48.884c.191.462.638.741 1.109.741.153 0 .309-.029.458-.092l12.127-5.022c.612-.253.903-.955.65-1.567-.253-.612-.957-.904-1.568-.649l-12.127 5.022C93.246 47.57 92.955 48.272 93.208 48.884zM23.055 98.982l-4.934 4.935c-.469.469-.469 1.229 0 1.697.234.234.542.352.849.352.307 0 .614-.117.849-.352l4.934-4.935c.469-.469.468-1.229 0-1.697C24.283 98.513 23.523 98.513 23.055 98.982zM36.182 85.855l-9.281 9.28c-.468.469-.469 1.229 0 1.697.234.234.541.352.849.352s.614-.117.849-.352l9.281-9.28c.468-.469.469-1.229 0-1.697C37.411 85.386 36.651 85.386 36.182 85.855zM99.831 25.103c.307 0 .614-.117.849-.351l4.934-4.934c.468-.469.469-1.229 0-1.697-.469-.469-1.229-.469-1.697 0l-4.934 4.934c-.469.469-.469 1.229 0 1.697C99.216 24.986 99.523 25.103 99.831 25.103zM86.703 38.231c.307 0 .614-.117.849-.352l9.281-9.281c.469-.469.469-1.229 0-1.697-.469-.469-1.229-.469-1.697 0l-9.281 9.281c-.469.469-.469 1.229 0 1.697C86.089 38.114 86.396 38.231 86.703 38.231zM48.885 93.208c-.615-.257-1.314.037-1.568.649l-5.023 12.126c-.253.612.038 1.314.649 1.567.15.063.306.092.459.092.471 0 .917-.279 1.109-.741l5.023-12.126C49.788 94.163 49.497 93.461 48.885 93.208zM74.849 30.525c.15.063.306.092.459.092.471 0 .918-.279 1.109-.741l5.023-12.126c.253-.612-.038-1.314-.649-1.567-.614-.256-1.314.037-1.568.649l-5.023 12.126C73.946 29.57 74.237 30.272 74.849 30.525z" class="colorffc847 svgShape"></path></svg></g></svg>