<svg id="SvgjsSvg1001" width="288" height="288" xmlns="http://www.w3.org/2000/svg" version="1.1" xmlns:xlink="http://www.w3.org/1999/xlink" xmlns:svgjs="http://svgjs.com/svgjs"><defs id="SvgjsDefs1002"></defs><g id="SvgjsG1008" transform="matrix(1,0,0,1,0,0)"><svg xmlns="http://www.w3.org/2000/svg" enable-background="new 0 0 46.9 46.8" viewBox="0 0 46.9 46.8" width="288" height="288"><path fill="#a03232" d="M21.4 45.4c-.6-.1-1-.6-1-1.2l0 0c.1-.6.6-1 1.2-1l0 0c.6.1 1 .6 1 1.2l0 0c-.1.6-.5 1-1.1 1l0 0C21.5 45.4 21.4 45.4 21.4 45.4zM30 43.5c-.2-.6.1-1.2.6-1.4l0 0c.6-.2 1.2.1 1.4.6l0 0c.2.6-.1 1.2-.6 1.4l0 0 0 0 0 0c-.1 0-.2.1-.4.1l0 0C30.6 44.2 30.2 43.9 30 43.5zM11.9 42.1C11.9 42.1 11.9 42.1 11.9 42.1L11.9 42.1c-.5-.3-.7-1-.3-1.5l0 0c.3-.5 1-.7 1.5-.3l0 0c.5.3.7 1 .4 1.5l0 0c-.2.3-.6.5-.9.5l0 0C12.2 42.2 12 42.2 11.9 42.1zM38.4 38.7c-.4-.4-.4-1.1 0-1.5l0 0c.4-.4 1.1-.4 1.5 0l0 0c.4.4.4 1.1 0 1.5l0 0c-.2.2-.5.3-.8.3l0 0C38.9 39 38.6 38.9 38.4 38.7zM4.7 35L4.7 35 4.7 35c-.3-.5-.2-1.2.3-1.5l0 0c.5-.3 1.2-.2 1.5.3l0 0c.3.5.2 1.2-.3 1.5l0 0c-.2.1-.4.2-.6.2l0 0C5.2 35.5 4.9 35.3 4.7 35zM43.8 30.8c-.6-.2-.9-.8-.7-1.4l0 0c.2-.6.8-.9 1.4-.7l0 0c.6.2.9.8.7 1.4l0 0 0 0 0 0c-.2.4-.6.7-1 .7l0 0C44.1 30.8 43.9 30.8 43.8 30.8zM1.3 25.5L1.3 25.5 1.3 25.5c-.1-.6.4-1.1.9-1.2l0 0c.6-.1 1.1.4 1.2.9l0 0c.1.6-.4 1.1-.9 1.2l0 0c0 0-.1 0-.1 0l0 0C1.8 26.4 1.4 26 1.3 25.5zM44.1 20.3c-.1-.6.3-1.1.9-1.2l0 0c.6-.1 1.1.3 1.2.9l0 0c.1.6-.3 1.1-.9 1.2l0 0c0 0-.1 0-.1 0l0 0C44.6 21.3 44.1 20.9 44.1 20.3zM3 17.1c-.6-.2-.9-.8-.7-1.4l0 0c.2-.6.8-.9 1.4-.7l0 0c.6.2.9.8.7 1.4l0 0c-.1.5-.6.7-1 .7l0 0C3.2 17.2 3.1 17.1 3 17.1zM41 11.8L41 11.8c-.3-.5-.2-1.2.3-1.5l0 0c.5-.3 1.2-.2 1.5.3l0 0 0 0 0 0c.3.5.2 1.2-.3 1.5l0 0c-.2.1-.4.2-.6.2l0 0C41.5 12.3 41.2 12.1 41 11.8zM7.5 8.6c-.4-.4-.4-1.1 0-1.5l0 0c0 0 0 0 0 0l0 0c.4-.4 1.1-.4 1.5 0l0 0c.4.4.4 1.1 0 1.5l0 0C8.9 8.8 8.6 8.9 8.3 8.9l0 0C8 8.9 7.8 8.8 7.5 8.6zM34.4 5.4c-.5-.3-.7-1-.4-1.5l0 0c.3-.5 1-.7 1.5-.4l0 0c.5.3.7 1 .4 1.5l0 0c-.2.3-.6.5-.9.5l0 0C34.8 5.5 34.6 5.5 34.4 5.4zM15.3 3c-.2-.6.1-1.2.6-1.4l0 0c.6-.2 1.2.1 1.4.6l0 0c.2.6-.1 1.2-.6 1.4l0 0c-.1 0-.2.1-.4.1l0 0C15.9 3.7 15.5 3.4 15.3 3zM25.8 2.5c-.6-.1-1-.6-1-1.2l0 0c.1-.6.6-1 1.2-1l0 0c.6.1 1 .6 1 1.2l0 0c-.1.6-.5 1-1.1 1l0 0C25.8 2.5 25.8 2.5 25.8 2.5zM28.3 13.1l-6.4 21.6H17l5.5-20.5c0 0 .1-1.1 1.8-1.1C26 13.1 28.3 13.1 28.3 13.1z" class="colorca3427 svgShape"></path><path fill="#c86f5e" d="M10.6,13.1L17,34.7h4.9l-5.4-20.5c0,0-0.1-1.1-1.8-1.1C13,13.1,10.6,13.1,10.6,13.1z" class="colorf0524a svgShape"></path><path fill="#a03232" d="M35.7,13.1l-6.4,21.6h-4.9l5.5-20.5c0,0,0.1-1.1,1.8-1.1C33.3,13.1,35.7,13.1,35.7,13.1z" class="colorca3427 svgShape"></path><path fill="#c86f5e" d="M17.9 13.1l6.4 21.6h4.9l-5.4-20.5c0 0-.1-1.1-1.8-1.1C20.3 13.1 17.9 13.1 17.9 13.1zM20.3 46.4c-.6-.1-1-.6-1-1.2l0 0c.1-.6.6-1 1.2-1l0 0c.6.1 1 .6 1 1.2l0 0c-.1.6-.5 1-1.1 1l0 0C20.4 46.4 20.4 46.4 20.3 46.4zM29 44.6c-.2-.6.1-1.2.6-1.4l0 0c.6-.2 1.2.1 1.4.6l0 0c.2.6-.1 1.2-.6 1.4l0 0c0 0 0 0 0 0l0 0c-.1 0-.2.1-.4.1l0 0C29.5 45.3 29.1 45 29 44.6zM10.8 43.2c-.5-.3-.7-1-.3-1.5l0 0c.3-.5 1-.7 1.5-.3l0 0c.5.3.7 1 .3 1.5l0 0c-.2.3-.6.5-.9.5l0 0C11.2 43.3 11 43.3 10.8 43.2zM37.3 39.8c-.4-.4-.4-1.1 0-1.5l0 0c.4-.4 1.1-.4 1.5 0l0 0c.4.4.4 1.1 0 1.5l0 0c-.2.2-.5.3-.8.3l0 0C37.8 40.1 37.5 40 37.3 39.8zM3.6 36.1L3.6 36.1 3.6 36.1c-.3-.5-.2-1.2.3-1.5l0 0c.5-.3 1.2-.2 1.5.3l0 0c.3.5.2 1.2-.3 1.5l0 0c-.2.1-.4.2-.6.2l0 0C4.2 36.6 3.8 36.4 3.6 36.1zM42.7 31.9c-.6-.2-.9-.8-.7-1.4l0 0c.2-.6.8-.9 1.4-.7l0 0c.6.2.9.8.7 1.4l0 0c0 0 0 0 0 0l0 0c-.2.4-.6.7-1 .7l0 0C43 31.9 42.9 31.9 42.7 31.9zM.2 26.6c-.1-.6.4-1.1.9-1.2l0 0c.6-.1 1.1.4 1.2.9l0 0c.1.6-.4 1.1-.9 1.2l0 0c0 0-.1 0-.1 0l0 0C.8 27.5.3 27.1.2 26.6zM43 21.4c-.1-.6.3-1.1.9-1.2l0 0c.6-.1 1.1.3 1.2.9l0 0c.1.6-.3 1.1-.9 1.2l0 0c0 0-.1 0-.1 0l0 0C43.5 22.4 43.1 22 43 21.4zM1.9 18.2C1.3 18 1 17.4 1.2 16.8l0 0C1.4 16.3 2 16 2.6 16.1l0 0c.6.2.9.8.7 1.4h0c-.2.5-.6.7-1 .7l0 0C2.1 18.2 2 18.2 1.9 18.2zM39.9 12.8c-.3-.5-.2-1.2.3-1.5l0 0c.5-.3 1.2-.2 1.5.3l0 0c.3.5.2 1.2-.3 1.5l0 0c-.2.1-.4.2-.6.2l0 0C40.4 13.3 40.1 13.2 39.9 12.8zM6.5 9.7C6 9.3 6 8.6 6.4 8.2l0 0c.4-.4 1.1-.4 1.5 0l0 0c.4.4.4 1.1 0 1.5l0 0C7.8 9.9 7.5 10 7.2 10l0 0C7 10 6.7 9.9 6.5 9.7zM33.4 6.5c-.5-.3-.7-1-.4-1.5l0 0c.3-.5 1-.7 1.5-.4l0 0c.5.3.7 1 .4 1.5l0 0c-.2.3-.6.5-.9.5l0 0C33.7 6.6 33.5 6.6 33.4 6.5zM14.3 4.1c-.2-.6.1-1.2.6-1.4l0 0c.6-.2 1.2.1 1.4.6l0 0c.2.6-.1 1.2-.6 1.4l0 0c-.1 0-.2.1-.4.1l0 0C14.8 4.8 14.4 4.5 14.3 4.1zM24.7 3.6L24.7 3.6c-.6-.1-1-.6-1-1.2l0 0c.1-.6.6-1 1.2-1l0 0 0 0 0 0c.6.1 1 .6 1 1.2l0 0c-.1.6-.5 1-1.1 1l0 0C24.8 3.6 24.7 3.6 24.7 3.6z" class="colorf0524a svgShape"></path></svg></g></svg>